<svg width="32" height="32" viewBox="0 0 32 32" fill="none" xmlns="http://www.w3.org/2000/svg">
<rect width="32" height="32" rx="16" fill="#F4F6F9"/>
<path d="M25.7498 16C25.745 18.382 24.8708 20.6804 23.2913 22.4636C21.7119 24.2467 19.5358 25.392 17.1717 25.6843C17.119 25.6895 17.0657 25.6837 17.0153 25.6673C16.9649 25.6509 16.9184 25.6243 16.8788 25.5891C16.8392 25.5539 16.8073 25.5108 16.7851 25.4627C16.7629 25.4145 16.7509 25.3623 16.7498 25.3093V18.25H18.9998C19.1024 18.2502 19.2039 18.2293 19.2981 18.1887C19.3923 18.1481 19.4772 18.0887 19.5475 18.014C19.6178 17.9393 19.672 17.851 19.7068 17.7545C19.7416 17.658 19.7563 17.5554 19.7498 17.4531C19.7333 17.2592 19.6437 17.0787 19.4993 16.9482C19.3549 16.8177 19.1663 16.7469 18.9717 16.75H16.7498V14.5C16.7498 14.1021 16.9079 13.7206 17.1892 13.4393C17.4705 13.158 17.852 13 18.2498 13H19.7498C19.8524 13.0002 19.9539 12.9793 20.0481 12.9387C20.1423 12.8981 20.2272 12.8387 20.2975 12.764C20.3678 12.6893 20.422 12.601 20.4568 12.5045C20.4916 12.408 20.5063 12.3054 20.4998 12.2031C20.4833 12.0092 20.3937 11.8287 20.2493 11.6982C20.1049 11.5677 19.9163 11.4969 19.7217 11.5H18.2498C17.4542 11.5 16.6911 11.816 16.1285 12.3786C15.5659 12.9413 15.2498 13.7043 15.2498 14.5V16.75H12.9998C12.8973 16.7498 12.7958 16.7706 12.7016 16.8112C12.6074 16.8518 12.5225 16.9113 12.4522 16.9859C12.3819 17.0606 12.3277 17.1489 12.2929 17.2454C12.2581 17.3419 12.2434 17.4445 12.2498 17.5468C12.2664 17.7408 12.356 17.9212 12.5004 18.0517C12.6448 18.1822 12.8334 18.253 13.028 18.25H15.2498V25.3093C15.2501 25.3619 15.2393 25.4139 15.2182 25.4621C15.197 25.5102 15.166 25.5533 15.1271 25.5887C15.0882 25.6241 15.0423 25.6508 14.9924 25.6673C14.9425 25.6838 14.8897 25.6896 14.8373 25.6843C9.88735 25.0843 6.06235 20.7812 6.25922 15.6343C6.36974 13.0926 7.4694 10.6947 9.32347 8.9525C11.1776 7.21032 13.6392 6.26186 16.1829 6.30958C18.7266 6.3573 21.1509 7.39741 22.9384 9.2079C24.7258 11.0184 25.7347 13.4558 25.7498 16V16Z" fill="#1A2C47"/>
</svg>
