<svg xmlns="http://www.w3.org/2000/svg" width="48" height="48" viewBox="0 0 48 48">
    <defs>
        <style>
            .cls-3{stroke:#ff0071;stroke-width:2px;stroke-linecap:round;stroke-linejoin:round;fill:none}
        </style>
    </defs>
    <g id="Group_22165" data-name="Group 22165" transform="translate(-208 -3236)">
        <g id="Group_21417" data-name="Group 21417" transform="translate(208 3236)">
            <path id="Path_17552" data-name="Path 17552" d="M53.757 50.814a15 15 0 1 1 18.508-.014 4.554 4.554 0 0 0-1.765 3.57v1.13A1.5 1.5 0 0 1 69 57H57a1.5 1.5 0 0 1-1.5-1.5v-1.131a4.519 4.519 0 0 0-1.743-3.555z" transform="translate(-39 -19.499)" style="stroke-linecap:round;stroke-linejoin:round;stroke:#ff0071;stroke-width:2px;fill:#ffb8d7"/>
            <path id="Rectangle_7950" data-name="Rectangle 7950" style="fill:none" d="M0 0h48v48H0z"/>
            <path id="Line_495" data-name="Line 495" class="cls-3" transform="translate(16.5 43.5)" d="M0 0h15"/>
            <path id="Line_496" data-name="Line 496" class="cls-3" transform="translate(24 27)" d="M0 10.5V0"/>
            <g id="Group_21420" data-name="Group 21420" transform="translate(18 21)">
                <path id="Path_17551" data-name="Path 17551" d="m96 112 6 6 6-6" transform="translate(-96 -112)" style="fill:#ff0071;stroke-linecap:round;stroke-linejoin:round;stroke:#ff0071;stroke-width:2px"/>
                <path id="Line_497" data-name="Line 497" transform="translate(1)" style="stroke-linecap:square;fill:none;stroke:#ff0071;stroke-width:2px" d="M0 0h10"/>
            </g>
        </g>
    </g>
</svg>
