<svg id="ScalerTopics" xmlns="http://www.w3.org/2000/svg" width="64" height="48">
    <defs>
        <clipPath id="clip-path">
            <path id="Rectangle_9156" data-name="Rectangle 9156" style="fill:#fff;stroke:#707070" d="M0 0h64v48H0z"/>
        </clipPath>
        <style>
            .cls-3{fill:#021028}.cls-4{fill:#ff0071}
        </style>
    </defs>
    <g id="Mask_Group_695" data-name="Mask Group 695" style="clip-path:url(#clip-path)">
        <g id="Layer_2" data-name="Layer 2" transform="translate(2.008)">
            <g id="Group_20927" data-name="Group 20927">
                <g id="Group_20926" data-name="Group 20926">
                    <g id="Group_20920" data-name="Group 20920">
                        <path id="Path_17458" data-name="Path 17458" class="cls-3" d="M568.4 466.538a4.27 4.27 0 0 0 2.578 1.051c1.051 0 1.508-.371 1.508-.971 0-.63-.587-.834-1.557-1.2l-1.3-.556a2.923 2.923 0 0 1-2.145-2.745c0-1.662 1.508-2.991 3.684-2.991a4.892 4.892 0 0 1 3.344 1.323l-1.156 1.433a3.484 3.484 0 0 0-2.188-.8c-.878 0-1.384.34-1.384.909 0 .618.68.834 1.65 1.187l1.218.525a2.8 2.8 0 0 1 2.157 2.726c0 1.662-1.4 3.115-3.9 3.115a5.835 5.835 0 0 1-3.826-1.447z" transform="translate(-567.085 -459.122)"/>
                    </g>
                    <g id="Group_20921" data-name="Group 20921" transform="translate(10.253)">
                        <path id="Path_17459" data-name="Path 17459" class="cls-3" d="M587.474 459.122a4.264 4.264 0 0 1 2.973 1.28l-1.249 1.4a2.448 2.448 0 0 0-1.724-.723c-1.416 0-2.466 1.217-2.466 3.238 0 2.064 1.05 3.269 2.559 3.269a2.361 2.361 0 0 0 1.786-.9l1.249 1.372a4.052 4.052 0 0 1-3.177 1.477c-2.59 0-4.747-1.773-4.747-5.148.007-3.318 2.122-5.265 4.796-5.265z" transform="translate(-582.678 -459.122)"/>
                    </g>
                    <g id="Group_20922" data-name="Group 20922" transform="translate(19.721 .192)">
                        <path id="Path_17460" data-name="Path 17460" class="cls-3" d="M603.041 467.071h-3.034l-.618 2.391h-2.312l3.127-10.049h2.713l3.127 10.049h-2.4zm-.457-1.773-.229-.927c-.26-1-.538-2.188-.8-3.238h-.062a140.908 140.908 0 0 1-.784 3.238l-.229.927z" transform="translate(-597.077 -459.414)"/>
                    </g>
                    <g id="Group_20923" data-name="Group 20923" transform="translate(31.408 .185)">
                        <path id="Path_17461" data-name="Path 17461" class="cls-3" d="M614.851 459.4h2.268v8.14h4.469v1.91h-6.737z" transform="translate(-614.851 -459.404)"/>
                    </g>
                    <g id="Group_20924" data-name="Group 20924" transform="translate(41.377 .185)">
                        <path id="Path_17462" data-name="Path 17462" class="cls-3" d="M630.011 459.4h6.625v1.91h-4.364v2.021h3.7v1.9h-3.7v2.311h4.518v1.91h-6.78z" transform="translate(-630.011 -459.404)"/>
                    </g>
                    <g id="Group_20925" data-name="Group 20925" transform="translate(51.179 .185)">
                        <path id="Path_17463" data-name="Path 17463" class="cls-3" d="m650.3 469.459-1.929-3.621h-1.187v3.621h-2.268V459.4h3.56c2.126 0 3.887.742 3.887 3.127a2.959 2.959 0 0 1-1.787 2.9l2.269 4.024H650.3zm-3.115-5.426h1.115c1.205 0 1.836-.507 1.836-1.5s-.631-1.323-1.836-1.323h-1.113z" transform="translate(-644.918 -459.404)"/>
                    </g>
                </g>
            </g>
        </g>
        <g id="Group_20928" data-name="Group 20928" transform="translate(0 8.607)">
            <path id="Path_17464" data-name="Path 17464" class="cls-4" d="M579.352 478.038a16.045 16.045 0 0 1 2.963-.858c3.486-.614 5.085.3 5.314 1.6a1.56 1.56 0 0 1-1.108 1.872 1.032 1.032 0 0 1-1.109-.859c-.172-.976-1.386-1.337-2.5-1.14a15.1 15.1 0 0 0-4.306 1.67c-3.956 5.011-7.443 19.473-6.468 25 .115.651.4.889.495 1.446a1.247 1.247 0 0 1-1 1.421c-.512.09-1.265-.113-1.463-1.228-1.229-6.97 2.2-18.5 5-24.887a24.918 24.918 0 0 1-7.19 2.705c-1.255.221-4.5.267-4.832-1.592a1.149 1.149 0 0 1 .972-1.273 1.229 1.229 0 0 1 1.012.3 3.035 3.035 0 0 0 2.583.79c3.253-.573 6.022-2.26 8.926-3.731.6-.967 1.212-1.555 1.676-1.637a1.178 1.178 0 0 1 1.035.401z" transform="translate(-563.14 -476.985)"/>
            <path id="Path_17465" data-name="Path 17465" class="cls-4" d="M592.878 500.385c.066.372.254 1.441 1 1.31 1.905-.336 3.488-1.957 3.952-2.039a.807.807 0 0 1 .976.642c.082.465-.423 1.129-1.834 2.1a10.942 10.942 0 0 1-3.9 1.5c-.484 2.961-1.974 7.009-5.227 7.582a2.716 2.716 0 0 1-3.127-2.515c-.762-4.322 2.134-9.1 5.386-9.671 1.714-.303 2.652.394 2.774 1.091zm-6.214 8.236a1.251 1.251 0 0 0 1.4 1.143c1.812-.32 3.445-4.92 3.2-6.315-.024-.14-.762-.249-.869-.853a9.2 9.2 0 0 1-.041-1.047.125.125 0 0 0-.164-.114c-2 .352-4.059 4.165-3.526 7.185z" transform="translate(-570.533 -484.649)"/>
            <path id="Path_17466" data-name="Path 17466" class="cls-4" d="M605.618 496.881c.106.6-.643 1.79-1.067 2.919a1.79 1.79 0 0 0-.2.754c.017.094.079.178.172.161 2.422-3.924 4.87-5.267 5.659-5.406.744-.131 1.8.448 2.057 1.889.46 2.6-1.9 9.871-7.2 10.8a3.914 3.914 0 0 1-1.889-.385c-.883.155-2.07 8.367-1.464 11.806.172.976.461 1.26.56 1.818a1.453 1.453 0 0 1-1.041 1.429c-.558.1-1.19-.221-1.387-1.337-.7-4 .3-10.786.868-14.1.485-2.961 1.546-7.268 1.907-8.482.408-1.222.848-2.258 1.638-2.4.469-.07 1.289-.024 1.387.534zm-.728 9.184c3.856-.68 5.539-6.631 5.326-7.838a.657.657 0 0 0-.812-.528c-1.673.295-5.652 5.452-6.086 7.877a1.783 1.783 0 0 0 1.572.489z" transform="translate(-575.699 -483.295)"/>
            <path id="Path_17467" data-name="Path 17467" class="cls-4" d="M628.953 492.833c.435-.8.725-1.325 1.236-1.415a.619.619 0 0 1 .765.535c.073.419-.063.73-.459 1.471-1.764 3.043-5.249 7.73-7.573 8.139a2.242 2.242 0 0 1-2.324-2.033c-.36-2.045 1.207-7.017 1.456-7.779.355-.973.642-1.791 1.246-1.9.419-.073 1.127.137 1.216.648s-.292 1.058-.588 1.829c-.71 1.946-1.531 5.444-1.351 6.467a.865.865 0 0 0 1 .782c1.348-.235 4.096-4.218 5.376-6.744zm-1.646-9.065a2.033 2.033 0 0 1-1.5 2.086c-.557.1-.963-.837-1.077-1.488a1.6 1.6 0 0 1 1.326-1.719c.464-.082 1.087.191 1.251 1.121z" transform="translate(-582.926 -478.925)"/>
            <path id="Path_17468" data-name="Path 17468" class="cls-4" d="M642.479 493.99c.434-.8.725-1.326 1.236-1.416a.619.619 0 0 1 .765.536c.073.419-.063.73-.506 1.479-1.717 3.034-5.52 7.825-9.516 8.53a2.776 2.776 0 0 1-3.2-2.359c-.532-3.021 2.855-9.081 6.526-9.728a2.321 2.321 0 0 1 2.419 1.49 2.827 2.827 0 0 1-1.826 2.958c-.326.058-.667.022-.79-.675-.115-.651.938-.932.815-1.63-.032-.185-.2-.347-.529-.289-1.905.336-4.984 4.615-4.517 7.265.124.7.571 1.337 1.361 1.2 3.116-.551 6.483-4.836 7.762-7.361z" transform="translate(-586.601 -481.818)"/>
            <path id="Path_17469" data-name="Path 17469" class="cls-4" d="M648.5 493.457c-.427-2.417 2.712-5.269 4.756-5.631a1.927 1.927 0 0 1 2.154 1.346c.172.975-.145 2.708-1.075 2.872a.878.878 0 0 1-1.115-.617c-.139-.79.533-1.052.5-1.239a.717.717 0 0 0-.8-.481c-.651.115-2.614 1.755-2.376 3.1.229 1.3 3.543.525 4.068 3.5.27 1.533-.783 3.444-3.478 3.919a2.757 2.757 0 0 1-3.283-1.769 1.114 1.114 0 0 1 .817-1.341.762.762 0 0 1 .96.549 1.16 1.16 0 0 0 1.522 1.025 1.663 1.663 0 0 0 1.323-2.006c-.323-1.81-3.606-1.136-3.973-3.227z" transform="translate(-592.329 -480.714)"/>
        </g>
    </g>
</svg>
