<svg xmlns="http://www.w3.org/2000/svg" width="135.549" height="39.998" viewBox="0 0 135.549 39.998">
    <defs>
        <linearGradient id="pn8otd9h7a" x1="2.472" y1="1.035" x2="2.361" y2="1.005" gradientUnits="objectBoundingBox">
            <stop offset="0" stop-color="#00a0ff"/>
            <stop offset=".007" stop-color="#00a1ff"/>
            <stop offset=".26" stop-color="#00beff"/>
            <stop offset=".512" stop-color="#00d2ff"/>
            <stop offset=".76" stop-color="#00dfff"/>
            <stop offset="1" stop-color="#00e3ff"/>
        </linearGradient>
        <linearGradient id="8q4rwlojsb" x1="1.95" y1="1.879" x2="1.69" y2="1.879" gradientUnits="objectBoundingBox">
            <stop offset="0" stop-color="#ffe000"/>
            <stop offset=".409" stop-color="#ffbd00"/>
            <stop offset=".775" stop-color="orange"/>
            <stop offset="1" stop-color="#ff9c00"/>
        </linearGradient>
        <linearGradient id="8e9xdvqyuc" x1="1.926" y1=".946" x2="1.835" y2=".793" gradientUnits="objectBoundingBox">
            <stop offset="0" stop-color="#ff3a44"/>
            <stop offset="1" stop-color="#c31162"/>
        </linearGradient>
        <linearGradient id="bsen1936pd" x1="1.856" y1="2.093" x2="1.897" y2="2.025" gradientUnits="objectBoundingBox">
            <stop offset="0" stop-color="#32a071"/>
            <stop offset=".068" stop-color="#2da771"/>
            <stop offset=".476" stop-color="#15cf74"/>
            <stop offset=".801" stop-color="#06e775"/>
            <stop offset="1" stop-color="#00f076"/>
        </linearGradient>
    </defs>
    <path data-name="Path 19320" d="M130.527 40H5.022A5.025 5.025 0 0 1 0 35V5a5.018 5.018 0 0 1 5.022-5h125.505a5.02 5.02 0 0 1 5.022 5v30a5.026 5.026 0 0 1-5.022 5z" style="fill-rule:evenodd"/>
    <path data-name="Path 19321" d="M130.527.8a4.222 4.222 0 0 1 4.222 4.2v30a4.214 4.214 0 0 1-4.222 4.2H5.022A4.222 4.222 0 0 1 .8 35V5A4.214 4.214 0 0 1 5.022.8zm0-.8H5.022A5.025 5.025 0 0 0 0 5v30a5.018 5.018 0 0 0 5.022 5h125.505a5.02 5.02 0 0 0 5.022-5V5a5.026 5.026 0 0 0-5.022-5z" style="fill:#a6a6a6;fill-rule:evenodd"/>
    <path data-name="Path 19322" d="M1684.456 277.766a3.043 3.043 0 0 1-2.272-.94 3.2 3.2 0 0 1-.918-2.294 3.13 3.13 0 0 1 .918-2.292 3.034 3.034 0 0 1 2.269-.94 3.075 3.075 0 0 1 2.272.94 3.32 3.32 0 0 1 0 4.583 3.018 3.018 0 0 1-2.269.943zm-26.934 0a3.155 3.155 0 0 1-2.282-.928 3.232 3.232 0 0 1 2.282-5.536 3.18 3.18 0 0 1 1.274.264 2.576 2.576 0 0 1 .97.693l.06.072-.676.663-.07-.082a1.921 1.921 0 0 0-1.568-.676 2.168 2.168 0 0 0-1.564.638 2.424 2.424 0 0 0 0 3.322 2.286 2.286 0 0 0 3.169 0 1.726 1.726 0 0 0 .459-1.04h-2.167v-.933h3.1l.012.085a3.419 3.419 0 0 1 .045.469 2.808 2.808 0 0 1-.773 2.07 3.017 3.017 0 0 1-2.271.919zm35.811-.132h-.955l-2.925-4.681.025.843v3.835h-.955v-6.2h1.09l.03.047 2.75 4.409-.025-.84v-3.616h.965zm-16.054 0h-.967v-5.267h-1.678v-.933h4.321v.933h-1.678v5.267zm-3.434 0h-.965v-6.2h.965zm-5.424 0h-.965v-5.267h-1.678v-.933h4.321v.933h-1.678zm-3.254-.01h-3.7v-6.189h3.7v.933h-2.733v1.7h2.466v.923h-2.466v1.7h2.733zm17.725-1.439a2.136 2.136 0 0 0 1.563.648 2.081 2.081 0 0 0 1.564-.648 2.457 2.457 0 0 0 0-3.3 2.14 2.14 0 0 0-1.564-.648 2.072 2.072 0 0 0-1.561.648 2.461 2.461 0 0 0-.005 3.3z" transform="translate(-1613.048 -264.535)" style="fill:#fff"/>
    <path data-name="Path 19323" d="M1673.766 687.723a4.254 4.254 0 1 0 4.267 4.254 4.187 4.187 0 0 0-4.267-4.254zm0 6.823a2.585 2.585 0 1 1 2.4-2.578 2.462 2.462 0 0 1-2.4 2.578zm-9.309-6.823a4.254 4.254 0 1 0 4.267 4.254 4.188 4.188 0 0 0-4.267-4.254zm0 6.823a2.585 2.585 0 1 1 2.4-2.578 2.462 2.462 0 0 1-2.4 2.578zm-11.077-5.523v1.8h4.322a3.8 3.8 0 0 1-.978 2.267 4.41 4.41 0 0 1-3.334 1.322 4.8 4.8 0 0 1 0-9.6 4.613 4.613 0 0 1 3.254 1.289l1.277-1.277A6.279 6.279 0 0 0 1653.4 683a6.6 6.6 0 1 0 0 13.2 6.043 6.043 0 0 0 4.611-1.855 5.975 5.975 0 0 0 1.566-4.222 5.565 5.565 0 0 0-.1-1.122h-6.1l.003.021zm45.307 1.4a3.953 3.953 0 0 0-3.643-2.711 4.042 4.042 0 0 0-4.01 4.254 4.158 4.158 0 0 0 4.222 4.254 4.222 4.222 0 0 0 3.543-1.888l-1.444-.968a2.419 2.419 0 0 1-2.09 1.177 2.173 2.173 0 0 1-2.067-1.289l5.688-2.357-.199-.471zm-5.8 1.421a2.335 2.335 0 0 1 2.222-2.479 1.64 1.64 0 0 1 1.578.9zm-4.621 4.122h1.868v-12.5h-1.868zm-3.067-7.3h-.067a2.946 2.946 0 0 0-2.244-.955 4.254 4.254 0 0 0 0 8.5 2.938 2.938 0 0 0 2.244-.968h.067v.611c0 1.623-.868 2.5-2.267 2.5a2.359 2.359 0 0 1-2.145-1.511l-1.623.678a4.06 4.06 0 0 0 3.765 2.511c2.189 0 4.045-1.289 4.045-4.434v-7.633h-1.766v.7zm-2.145 5.878a2.587 2.587 0 0 1 0-5.154 2.391 2.391 0 0 1 2.267 2.588 2.362 2.362 0 0 1-2.266 2.568zm24.378-11.077h-4.466v12.5h1.868v-4.733h2.6a3.888 3.888 0 1 0 0-7.765zm.055 6.02h-2.656V685.2h2.656a2.145 2.145 0 1 1 0 4.289zm11.533-1.788a3.517 3.517 0 0 0-3.334 1.91l1.656.688a1.775 1.775 0 0 1 1.7-.923 1.8 1.8 0 0 1 1.968 1.611v.132a4.183 4.183 0 0 0-1.945-.479c-1.788 0-3.6.977-3.6 2.81a2.889 2.889 0 0 0 3.1 2.755 2.629 2.629 0 0 0 2.376-1.222h.067v.968h1.8v-4.788c0-2.226-1.655-3.461-3.787-3.461zm-.234 6.845c-.611 0-1.466-.3-1.466-1.067 0-.968 1.067-1.334 1.977-1.334a3.241 3.241 0 0 1 1.7.421 2.248 2.248 0 0 1-2.211 1.982zm10.591-6.578-2.145 5.421h-.067l-2.222-5.421h-2.01l3.334 7.578-1.9 4.212h1.945l5.129-11.79zm-16.812 8h1.868v-12.5h-1.868z" transform="translate(-1605.637 -665.968)" style="fill:#fff;fill-rule:evenodd"/>
    <path data-name="Path 19324" d="M400.556 299.467a2.025 2.025 0 0 0-.456 1.411v22.112a1.928 1.928 0 0 0 .466 1.4l.077.067 12.388-12.388v-.277l-12.4-12.391z" transform="translate(-390.123 -291.934)" style="fill:url(#pn8otd9h7a);fill-rule:evenodd"/>
    <path data-name="Path 19325" d="m922.432 639.053-4.132-4.132v-.289l4.132-4.132.09.055 4.888 2.778c1.4.788 1.4 2.09 0 2.888L922.522 639z" transform="translate(-895.401 -614.778)" style="fill:url(#8q4rwlojsb);fill-rule:evenodd"/>
    <path data-name="Path 19326" d="M435.087 806.222 430.866 802 418.4 814.466a1.636 1.636 0 0 0 2.077.067l14.61-8.311" transform="translate(-407.967 -782.001)" style="fill:url(#8e9xdvqyuc);fill-rule:evenodd"/>
    <path data-name="Path 19327" d="m435.087 295.114-14.61-8.3a1.62 1.62 0 0 0-2.077.067l12.466 12.453z" transform="translate(-407.967 -279.337)" style="fill:url(#bsen1936pd);fill-rule:evenodd"/>
    <path data-name="Path 19328" d="m435.388 967.7-14.511 8.244a1.647 1.647 0 0 1-2 .01l-.077.077.077.067a1.65 1.65 0 0 0 2-.01l14.61-8.3z" transform="translate(-408.357 -943.569)" style="opacity:.2;fill-rule:evenodd"/>
    <path data-name="Path 19329" d="m1088.49 803.3-4.99 2.833.09.09 4.888-2.778a1.751 1.751 0 0 0 1.045-1.444 1.8 1.8 0 0 1-1.033 1.299z" transform="translate(-1056.481 -782.001)" style="opacity:.12;fill-rule:evenodd"/>
    <path data-name="Path 19330" d="m402.634 286.789 19.5 11.077a1.838 1.838 0 0 1 1.045 1.3 1.751 1.751 0 0 0-1.045-1.444l-19.5-11.077c-1.4-.8-2.534-.132-2.534 1.466v.145c0-1.601 1.135-2.256 2.534-1.467z" transform="translate(-390.123 -279.166)" style="opacity:.25;fill:#fff;fill-rule:evenodd"/>
</svg>
