<svg width="85" height="68" viewBox="0 0 85 68" fill="none" xmlns="http://www.w3.org/2000/svg">
<rect width="85" height="68" rx="16" fill="white"/>
<path d="M18.7913 22.1843C19.3939 22.708 20.1559 23.0163 20.9557 23.0601C21.8381 23.0601 22.2218 22.7509 22.2218 22.2509C22.2218 21.726 21.729 21.5559 20.9146 21.251L19.8231 20.7876C19.3154 20.6487 18.8661 20.3512 18.5418 19.9393C18.2175 19.5274 18.0353 19.0228 18.0222 18.5002C18.0222 17.1153 19.2883 16.0078 21.1153 16.0078C22.1582 16.0082 23.1619 16.4023 23.9228 17.1103L22.9523 18.3044C22.4351 17.8795 21.7865 17.6442 21.1153 17.6378C20.3781 17.6378 19.9533 17.9211 19.9533 18.3952C19.9533 18.9102 20.5242 19.0902 21.3386 19.3844L22.3612 19.8218C22.8767 19.9426 23.3362 20.2326 23.6649 20.6449C23.9936 21.0572 24.1723 21.5676 24.1722 22.0934C24.1722 23.4784 22.9967 24.6892 20.8978 24.6892C19.7155 24.6851 18.5746 24.2568 17.6855 23.4834L18.7913 22.1843Z" fill="#021028"/>
<path d="M30.3226 16C31.2635 16.0161 32.1602 16.3993 32.8187 17.0666L31.77 18.2333C31.3868 17.8503 30.8663 17.6336 30.3226 17.6308C29.1337 17.6308 28.2521 18.6449 28.2521 20.329C28.2521 22.0489 29.1337 23.0531 30.4007 23.0531C30.6907 23.0446 30.9753 22.973 31.2343 22.8435C31.4934 22.7139 31.7208 22.5294 31.9002 22.3031L32.9488 23.4464C32.6253 23.8366 32.2177 24.1497 31.7561 24.3627C31.2944 24.5757 30.7905 24.6832 30.2814 24.6772C28.1069 24.6772 26.2959 23.1997 26.2959 20.3873C26.3018 17.6224 28.0775 16 30.3226 16Z" fill="#021028"/>
<path d="M39.2514 22.5377H36.7041L36.1852 24.5301H34.2441L36.8695 16.1562H39.1473L41.7727 24.5301H39.7577L39.2514 22.5377ZM38.8677 21.0603L38.6754 20.2878C38.4571 19.4545 38.2237 18.4645 38.0038 17.5895H37.9517C37.7443 18.4753 37.5109 19.4536 37.2935 20.2878L37.1012 21.0603H38.8677Z" fill="#021028"/>
<path d="M44.0566 16.1484H45.9608V22.9316H49.7129V24.5232H44.0566V16.1484Z" fill="#021028"/>
<path d="M52.4276 16.1484H57.9898V17.7401H54.3259V19.4242H57.4323V21.0074H54.3259V22.9332H58.1191V24.5248H52.4268L52.4276 16.1484Z" fill="#021028"/>
<path d="M65.1756 24.5307L63.556 21.5133H62.5595V24.5307H60.6553V16.1484H63.6442C65.4291 16.1484 66.9076 16.7668 66.9076 18.7542C66.9389 19.2613 66.8115 19.7657 66.543 20.1982C66.2744 20.6308 65.8778 20.9705 65.4073 21.1708L67.3123 24.524H65.1756V24.5307ZM62.5603 20.0091H63.4964C64.5081 20.0091 65.0379 19.5866 65.0379 18.7592C65.0379 17.9317 64.5081 17.6567 63.4964 17.6567H62.562L62.5603 20.0091Z" fill="#021028"/>
<path d="M29.6114 24.0498C30.4156 23.7327 31.2487 23.4933 32.0991 23.3348C35.0259 22.8232 36.3684 23.5848 36.5607 24.6681C36.6408 24.9972 36.5884 25.3442 36.4147 25.6356C36.241 25.9269 35.9596 26.1395 35.6304 26.2281C35.4129 26.2472 35.1961 26.184 35.0235 26.0513C34.8508 25.9186 34.7351 25.7261 34.6993 25.5122C34.5549 24.6989 33.5357 24.3981 32.6004 24.5623C31.3305 24.8394 30.1112 25.3088 28.9851 25.9539C25.6637 30.1296 22.7361 42.1808 23.5547 46.7865C23.6512 47.329 23.8905 47.5273 23.9703 47.9915C24.013 48.2585 23.9493 48.5315 23.7925 48.7526C23.6358 48.9737 23.3983 49.1254 23.1307 49.1756C22.7008 49.2506 22.0686 49.0814 21.9024 48.1523C20.8705 42.3442 23.7495 32.7362 26.1003 27.4139C24.2176 28.4704 22.1812 29.2308 20.0637 29.6679C19.01 29.8521 16.2856 29.8904 16.0068 28.3413C15.977 28.0939 16.0455 27.8446 16.1979 27.6465C16.3503 27.4484 16.5745 27.3172 16.8229 27.2805C16.9743 27.2569 17.1292 27.2671 17.2762 27.3104C17.4231 27.3536 17.5586 27.4288 17.6726 27.5305C17.9583 27.799 18.3028 27.9981 18.679 28.1123C19.0553 28.2265 19.4531 28.2527 19.8412 28.1888C22.5724 27.7113 24.8972 26.3055 27.3353 25.0798C27.8391 24.2739 28.3529 23.784 28.7425 23.7156C28.9038 23.6962 29.0675 23.7165 29.2191 23.7748C29.3707 23.833 29.5054 23.9275 29.6114 24.0498Z" fill="#FF0071"/>
<path d="M34.761 36.2823C34.8164 36.5923 34.9742 37.4831 35.6005 37.3739C37.1999 37.0939 38.529 35.7432 38.9186 35.6748C39.0079 35.6543 39.1005 35.652 39.1908 35.668C39.2811 35.6841 39.3671 35.7181 39.4437 35.7682C39.5204 35.8182 39.5859 35.8831 39.6365 35.959C39.6871 36.0349 39.7217 36.1203 39.738 36.2098C39.8069 36.5973 39.3829 37.1506 38.1982 37.9597C37.1978 38.5813 36.0861 39.0057 34.9239 39.2097C34.5175 41.6771 33.2665 45.0503 30.5353 45.5278C30.222 45.5761 29.902 45.5589 29.5958 45.4775C29.2896 45.396 29.0038 45.2521 28.7567 45.0549C28.5097 44.8577 28.3068 44.6115 28.161 44.3321C28.0152 44.0527 27.9297 43.7461 27.91 43.432C27.2702 39.8305 29.7016 35.849 32.432 35.3732C33.871 35.1207 34.6585 35.7015 34.761 36.2823ZM29.5438 43.1454C29.555 43.2857 29.5946 43.4223 29.6604 43.5469C29.7262 43.6716 29.8168 43.7817 29.9266 43.8707C30.0364 43.9597 30.1633 44.0257 30.2995 44.0648C30.4357 44.1038 30.5785 44.1151 30.7192 44.0979C32.2406 43.8312 33.6116 39.998 33.4059 38.8355C33.3857 38.7189 32.7661 38.6281 32.6763 38.1247C32.6481 37.8348 32.6366 37.5435 32.6419 37.2523C32.6412 37.2361 32.6368 37.2204 32.629 37.2062C32.6212 37.1921 32.6102 37.1799 32.5969 37.1707C32.5835 37.1615 32.5682 37.1554 32.5521 37.1531C32.536 37.1508 32.5196 37.1522 32.5042 37.1573C30.825 37.4506 29.0963 40.628 29.5438 43.1446V43.1454Z" fill="#FF0071"/>
<path d="M41.1197 34.4969C41.2087 34.9968 40.5799 35.9885 40.2239 36.9293C40.1221 37.1239 40.0647 37.3384 40.056 37.5576C40.0702 37.6359 40.1223 37.7059 40.2004 37.6917C42.2338 34.4218 44.2891 33.3027 44.9516 33.1869C45.5762 33.0777 46.4628 33.5602 46.6786 34.761C47.0648 36.9276 45.0834 42.9865 40.6336 43.7607C40.0863 43.7867 39.5411 43.6764 39.0476 43.4399C38.3063 43.569 37.3097 50.4121 37.8184 53.2779C37.9628 54.0912 38.2055 54.3278 38.2886 54.7928C38.2952 55.0591 38.2131 55.3201 38.0551 55.5353C37.8971 55.7506 37.672 55.9082 37.4146 55.9836C36.9461 56.067 36.4155 55.7994 36.2501 54.8695C35.6624 51.5362 36.502 45.8815 36.9789 43.1199C37.3861 40.6525 38.2769 37.0634 38.58 36.0518C38.9225 35.0335 39.2919 34.1702 39.9552 34.0518C40.349 33.9935 41.0374 34.0319 41.1197 34.4969ZM40.5085 42.1499C43.7459 41.5833 45.159 36.6243 44.9801 35.6185C44.9675 35.5436 44.9394 35.4722 44.8975 35.4087C44.8556 35.3452 44.8009 35.291 44.7368 35.2497C44.6727 35.2083 44.6005 35.1806 44.5251 35.1683C44.4496 35.1561 44.3724 35.1596 44.2984 35.1785C42.8937 35.4243 39.553 39.7217 39.1887 41.7424C39.3595 41.9106 39.5686 42.0355 39.7984 42.1064C40.0281 42.1773 40.2717 42.1923 40.5085 42.1499V42.1499Z" fill="#FF0071"/>
<path d="M54.6436 34.7651C55.0088 34.0985 55.2523 33.661 55.6813 33.586C55.7534 33.5682 55.8284 33.5659 55.9015 33.5794C55.9745 33.5928 56.0438 33.6216 56.1046 33.6639C56.1655 33.7061 56.2166 33.7608 56.2543 33.8243C56.2921 33.8878 56.3157 33.9585 56.3236 34.0318C56.3849 34.381 56.2707 34.6402 55.9382 35.2576C54.4572 37.7934 51.5312 41.6991 49.58 42.0399C49.098 42.0594 48.6269 41.8946 48.2638 41.5793C47.9007 41.2641 47.6734 40.8225 47.6289 40.3458C47.3266 38.6417 48.6422 34.4985 48.8513 33.8635C49.1493 33.0527 49.3903 32.3711 49.8974 32.2802C50.2492 32.2194 50.8436 32.3944 50.9183 32.8202C50.9931 33.246 50.6732 33.7018 50.4246 34.3443C49.8285 35.9659 49.1393 38.8808 49.2904 39.7333C49.2987 39.8323 49.3276 39.9285 49.3751 40.0159C49.4227 40.1033 49.4879 40.18 49.5667 40.2412C49.6456 40.3024 49.7363 40.3467 49.8332 40.3715C49.9302 40.3962 50.0312 40.4008 50.13 40.3849C51.2618 40.1891 53.5689 36.8701 54.6436 34.7651ZM53.2616 27.2112C53.2854 27.6006 53.1731 27.9862 52.9437 28.3029C52.7142 28.6196 52.3817 28.848 52.0022 28.9495C51.5346 29.0328 51.1937 28.252 51.098 27.7095C51.0681 27.3756 51.1661 27.0427 51.3724 26.7772C51.5787 26.5118 51.8783 26.3332 52.2113 26.2771C52.6009 26.2088 53.1239 26.4363 53.2616 27.2112V27.2112Z" fill="#FF0071"/>
<path d="M62.9137 33.3196C63.2781 32.653 63.5225 32.2147 63.9515 32.1397C64.0236 32.1219 64.0988 32.1196 64.1718 32.1331C64.2449 32.1466 64.3143 32.1755 64.3751 32.2178C64.436 32.2601 64.487 32.3149 64.5247 32.3785C64.5624 32.4421 64.586 32.5129 64.5937 32.5863C64.655 32.9355 64.5409 33.1946 64.1689 33.8188C62.7274 36.347 59.5344 40.3394 56.1794 40.9269C55.8725 40.9769 55.5586 40.9655 55.2561 40.8933C54.9537 40.821 54.6689 40.6894 54.4185 40.5062C54.1681 40.323 53.9572 40.0919 53.7982 39.8266C53.6392 39.5612 53.5354 39.2669 53.4928 38.9611C53.0461 36.4437 55.8898 31.3939 58.9719 30.8547C59.4012 30.8091 59.8335 30.9063 60.2011 31.1311C60.5687 31.3558 60.8507 31.6953 61.0029 32.0963C61.0604 32.618 60.9409 33.1438 60.6632 33.5903C60.3854 34.0368 59.9654 34.3786 59.4698 34.5613C59.1961 34.6096 58.9097 34.5796 58.8065 33.9988C58.7099 33.4563 59.594 33.2221 59.4907 32.6405C59.4639 32.4863 59.3228 32.3513 59.0466 32.3996C57.4472 32.6796 54.8621 36.2454 55.2542 38.4536C55.3583 39.0369 55.7336 39.5678 56.3969 39.4536C59.013 38.9944 61.8399 35.4237 62.9137 33.3196Z" fill="#FF0071"/>
<path d="M63.1614 33.7913C62.8029 31.7772 65.4383 29.4006 67.1544 29.0989C67.5417 29.0365 67.9385 29.1158 68.2712 29.3222C68.6039 29.5285 68.8497 29.8477 68.9629 30.2205C69.1073 31.033 68.8412 32.4771 68.0604 32.6138C67.965 32.6438 67.8643 32.6542 67.7647 32.6443C67.6651 32.6345 67.5686 32.6046 67.481 32.5565C67.3934 32.5083 67.3166 32.443 67.2552 32.3645C67.1939 32.2859 67.1493 32.1958 67.1242 32.0996C67.0075 31.4413 67.5717 31.223 67.544 31.0672C67.4987 30.9318 67.4061 30.8169 67.2829 30.7434C67.1597 30.6699 67.0141 30.6426 66.8724 30.6664C66.3258 30.7622 64.6777 32.1288 64.8775 33.2496C65.0698 34.3329 67.8522 33.6871 68.2929 36.1662C68.5196 37.4436 67.6355 39.0361 65.3728 39.4319C64.8109 39.5735 64.2159 39.5005 63.7055 39.2276C63.1951 38.9546 62.8065 38.5015 62.6165 37.9578C62.559 37.7194 62.5989 37.468 62.7274 37.2587C62.8559 37.0493 63.0626 36.8989 63.3025 36.8403C63.3857 36.8154 63.473 36.8077 63.5594 36.8174C63.6457 36.8272 63.7291 36.8543 63.8045 36.8971C63.8799 36.9399 63.9458 36.9975 63.998 37.0664C64.0503 37.1353 64.0879 37.214 64.1084 37.2978C64.1182 37.4451 64.1619 37.5882 64.236 37.7162C64.3102 37.8442 64.4129 37.9536 64.5362 38.036C64.6596 38.1185 64.8004 38.1718 64.9477 38.1919C65.0951 38.212 65.2451 38.1983 65.3863 38.1519C65.5718 38.1184 65.7485 38.0479 65.9057 37.9447C66.063 37.8415 66.1976 37.7078 66.3014 37.5516C66.4052 37.3954 66.476 37.2199 66.5096 37.0358C66.5433 36.8517 66.539 36.6627 66.4971 36.4803C66.2259 34.972 63.4695 35.5337 63.1614 33.7913Z" fill="#FF0071"/>
</svg>
