<svg width="61" height="8" viewBox="0 0 61 8" fill="none" xmlns="http://www.w3.org/2000/svg">
<path d="M4.18875 2.99861C2.78498 2.74547 2.54861 2.5414 2.54861 2.17898C2.54861 1.62141 3.20999 1.50544 3.76373 1.50544C4.88786 1.50544 5.1553 1.91358 5.26848 2.3128L5.28624 2.37747H7.26816L7.25928 2.28046C7.20713 1.74519 6.80542 0 3.82144 0C1.81954 0 0.525635 0.925564 0.525635 2.3574C0.525635 3.31865 0.906262 4.27321 3.6683 4.74714C5.23075 5.01366 5.51706 5.29021 5.51706 5.73961C5.51706 6.063 5.37058 6.49345 4.10552 6.49345C3.03022 6.49345 2.77943 6.1801 2.5464 5.47867L2.52642 5.41845H0.538951L0.556707 5.52216C0.918468 7.67773 2.70397 8 3.93463 8C7.19825 8 7.55002 6.28938 7.55002 5.5545C7.55002 4.35238 6.98741 3.50599 4.18875 3.00084V2.99861Z" fill="white"/>
<path d="M13.0063 6.25704C11.7979 6.25704 10.8746 5.33705 10.8746 3.99888C10.8746 2.66072 11.799 1.74073 13.0063 1.74073C13.8275 1.74073 14.4733 2.09311 14.7907 2.87259L16.5829 2.26261C16.0047 0.572065 14.4955 0 13.0063 0C10.5639 0 8.88379 1.62476 8.88379 3.99888C8.88379 6.37301 10.5628 7.99777 13.0063 7.99777C14.9361 7.99777 16.4442 7.06105 16.7726 4.73041H14.8628C14.5788 5.65932 13.8941 6.25704 13.0063 6.25704Z" fill="white"/>
<path d="M26.7618 7.99888H24.4714L23.8766 6.19347H20.9526L20.3445 7.99888H18.1062L21.1079 0H23.7734L26.7618 7.99888ZM21.3676 4.77502H23.4638L22.4163 1.53889L21.3687 4.77502H21.3676Z" fill="white"/>
<path d="M30.3206 6.38639H34.603V7.99777H28.0957V0H30.3206V6.38639Z" fill="white"/>
<path d="M35.9376 7.99888V0H42.5869V1.61137H38.1626V3.23501H42.3018V4.74937H38.1626V6.38528H42.5747V7.99665H35.9365L35.9376 7.99888Z" fill="white"/>
<path d="M51.7218 7.99888L49.4969 4.76944C49.8342 4.66351 50.1272 4.51631 50.3758 4.32673C50.9362 3.89852 51.2169 3.27627 51.2169 2.45999C51.2169 1.71731 50.9339 1.12071 50.3691 0.672428C49.8043 0.224143 49.0131 0 47.9955 0H43.9207V7.99888H46.1068V5.07834H47.4406L49.2638 7.99888H51.7218ZM46.1068 1.57569H47.6848C48.1164 1.57569 48.4393 1.65598 48.6546 1.81767C48.8699 1.97937 48.9775 2.23362 48.9775 2.58154C48.9775 2.92947 48.8699 3.19598 48.6546 3.35768C48.4393 3.51937 48.1153 3.59966 47.6848 3.59966H46.1068V1.57569Z" fill="white"/>
<path d="M56.3404 0L53.0557 3.30081V7.98327H57.7153L61 4.68247V0H56.3404ZM56.2982 6.56036H54.4716V4.72484H56.2982V6.56036ZM59.3022 5.84555L57.7153 7.4402V3.30081H53.6061L55.1552 1.72735H59.3044L59.3022 5.84444V5.84555Z" fill="white"/>
</svg>
