<?xml version="1.0" standalone="no"?>
<!DOCTYPE svg PUBLIC "-//W3C//DTD SVG 20010904//EN"
 "http://www.w3.org/TR/2001/REC-SVG-20010904/DTD/svg10.dtd">
<svg version="1.0" xmlns="http://www.w3.org/2000/svg"
 width="1026.000000pt" height="1026.000000pt" viewBox="0 0 1026.000000 1026.000000"
 preserveAspectRatio="xMidYMid meet">

<g transform="translate(0.000000,1026.000000) scale(0.100000,-0.100000)"
fill="#000000" stroke="none">
<path d="M380 8550 l0 -1330 1330 0 1330 0 0 1330 0 1330 -1330 0 -1330 0 0
-1330z m2280 0 l0 -950 -950 0 -950 0 0 950 0 950 950 0 950 0 0 -950z"/>
<path d="M1140 8550 l0 -570 570 0 570 0 0 570 0 570 -570 0 -570 0 0 -570z"/>
<path d="M3800 9690 l0 -190 190 0 190 0 0 -190 0 -190 -380 0 -380 0 0 -190
0 -190 190 0 190 0 0 -190 0 -190 190 0 190 0 0 -190 0 -190 -190 0 -190 0 0
-190 0 -190 -190 0 -190 0 0 -380 0 -380 -760 0 -760 0 0 -190 0 -190 -190 0
-190 0 0 190 0 190 -570 0 -570 0 0 -190 0 -190 380 0 380 0 0 -190 0 -190
-380 0 -380 0 0 -570 0 -570 380 0 380 0 0 -190 0 -190 190 0 190 0 0 -570 0
-570 190 0 190 0 0 190 0 190 380 0 380 0 0 -190 0 -190 380 0 380 0 0 -760 0
-760 190 0 190 0 0 -190 0 -190 -190 0 -190 0 0 -570 0 -570 190 0 190 0 0
190 0 190 380 0 380 0 0 -190 0 -190 190 0 190 0 0 380 0 380 190 0 190 0 0
-190 0 -190 380 0 380 0 0 -190 0 -190 380 0 380 0 0 570 0 570 190 0 190 0 0
190 0 190 190 0 190 0 0 -190 0 -190 190 0 190 0 0 -380 0 -380 -190 0 -190 0
0 190 0 190 -190 0 -190 0 0 -190 0 -190 190 0 190 0 0 -190 0 -190 190 0 190
0 0 190 0 190 380 0 380 0 0 190 0 190 -190 0 -190 0 0 190 0 190 380 0 380 0
0 190 0 190 -190 0 -190 0 0 950 0 950 -190 0 -190 0 0 190 0 190 -190 0 -190
0 0 190 0 190 -190 0 -190 0 0 380 0 380 190 0 190 0 0 190 0 190 190 0 190 0
0 190 0 190 -380 0 -380 0 0 380 0 380 -380 0 -380 0 0 380 0 380 -190 0 -190
0 0 570 0 570 -190 0 -190 0 0 190 0 190 380 0 380 0 0 190 0 190 -190 0 -190
0 0 190 0 190 -190 0 -190 0 0 -380 0 -380 -190 0 -190 0 0 -190 0 -190 190 0
190 0 0 -190 0 -190 -380 0 -380 0 0 -190 0 -190 190 0 190 0 0 -380 0 -380
-190 0 -190 0 0 190 0 190 -190 0 -190 0 0 -380 0 -380 -190 0 -190 0 0 380 0
380 -190 0 -190 0 0 190 0 190 190 0 190 0 0 190 0 190 190 0 190 0 0 190 0
190 190 0 190 0 0 570 0 570 -190 0 -190 0 0 -190 0 -190 -380 0 -380 0 0 190
0 190 -190 0 -190 0 0 -190z m1140 -760 l0 -190 -190 0 -190 0 0 190 0 190
190 0 190 0 0 -190z m-760 -1520 l0 -190 -190 0 -190 0 0 190 0 190 190 0 190
0 0 -190z m2280 0 l0 -190 -190 0 -190 0 0 -380 0 -380 190 0 190 0 0 -190 0
-190 190 0 190 0 0 190 0 190 190 0 190 0 0 -380 0 -380 190 0 190 0 0 -190 0
-190 -190 0 -190 0 0 190 0 190 -190 0 -190 0 0 -190 0 -190 -190 0 -190 0 0
-380 0 -380 190 0 190 0 0 190 0 190 190 0 190 0 0 -380 0 -380 380 0 380 0 0
-190 0 -190 -380 0 -380 0 0 190 0 190 -190 0 -190 0 0 -190 0 -190 -190 0
-190 0 0 -190 0 -190 -190 0 -190 0 0 -380 0 -380 190 0 190 0 0 -950 0 -950
-190 0 -190 0 0 190 0 190 -190 0 -190 0 0 190 0 190 -190 0 -190 0 0 190 0
190 380 0 380 0 0 380 0 380 -380 0 -380 0 0 -190 0 -190 -190 0 -190 0 0
-190 0 -190 -190 0 -190 0 0 190 0 190 -190 0 -190 0 0 -190 0 -190 -190 0
-190 0 0 950 0 950 -570 0 -570 0 0 190 0 190 -190 0 -190 0 0 380 0 380 380
0 380 0 0 190 0 190 -380 0 -380 0 0 380 0 380 -190 0 -190 0 0 190 0 190 760
0 760 0 0 -190 0 -190 190 0 190 0 0 380 0 380 190 0 190 0 0 -380 0 -380 380
0 380 0 0 190 0 190 190 0 190 0 0 -190 0 -190 -190 0 -190 0 0 -190 0 -190
190 0 190 0 0 -190 0 -190 -190 0 -190 0 0 190 0 190 -190 0 -190 0 0 -380 0
-380 190 0 190 0 0 -190 0 -190 190 0 190 0 0 190 0 190 190 0 190 0 0 190 0
190 380 0 380 0 0 190 0 190 -190 0 -190 0 0 190 0 190 -190 0 -190 0 0 570 0
570 190 0 190 0 0 190 0 190 190 0 190 0 0 -190z m-4560 -2090 l0 -380 -190 0
-190 0 0 380 0 380 190 0 190 0 0 -380z m6080 -2470 l0 -570 -570 0 -570 0 0
570 0 570 570 0 570 0 0 -570z m-3800 -1520 l0 -190 -190 0 -190 0 0 190 0
190 190 0 190 0 0 -190z m760 0 l0 -190 -190 0 -190 0 0 190 0 190 190 0 190
0 0 -190z"/>
<path d="M2660 5890 l0 -190 190 0 190 0 0 -190 0 -190 190 0 190 0 0 380 0
380 -380 0 -380 0 0 -190z"/>
<path d="M3800 5890 l0 -190 190 0 190 0 0 190 0 190 -190 0 -190 0 0 -190z"/>
<path d="M3040 4750 l0 -190 -190 0 -190 0 0 -190 0 -190 570 0 570 0 0 -190
0 -190 380 0 380 0 0 380 0 380 -190 0 -190 0 0 190 0 190 -570 0 -570 0 0
-190z m1140 -380 l0 -190 -190 0 -190 0 0 190 0 190 190 0 190 0 0 -190z"/>
<path d="M5320 3990 l0 -570 -570 0 -570 0 0 -190 0 -190 380 0 380 0 0 -190
0 -190 190 0 190 0 0 380 0 380 190 0 190 0 0 190 0 190 190 0 190 0 0 190 0
190 -190 0 -190 0 0 190 0 190 -190 0 -190 0 0 -570z"/>
<path d="M7220 2850 l0 -190 190 0 190 0 0 190 0 190 -190 0 -190 0 0 -190z"/>
<path d="M7220 8550 l0 -1330 1330 0 1330 0 0 1330 0 1330 -1330 0 -1330 0 0
-1330z m2280 0 l0 -950 -950 0 -950 0 0 950 0 950 950 0 950 0 0 -950z"/>
<path d="M7980 8550 l0 -570 570 0 570 0 0 570 0 570 -570 0 -570 0 0 -570z"/>
<path d="M8740 6650 l0 -190 190 0 190 0 0 190 0 190 -190 0 -190 0 0 -190z"/>
<path d="M9500 6270 l0 -190 -380 0 -380 0 0 -190 0 -190 190 0 190 0 0 -380
0 -380 190 0 190 0 0 -190 0 -190 -380 0 -380 0 0 380 0 380 -190 0 -190 0 0
-380 0 -380 190 0 190 0 0 -190 0 -190 190 0 190 0 0 -190 0 -190 190 0 190 0
0 190 0 190 190 0 190 0 0 570 0 570 -190 0 -190 0 0 190 0 190 190 0 190 0 0
380 0 380 -190 0 -190 0 0 -190z"/>
<path d="M380 4370 l0 -190 190 0 190 0 0 -190 0 -190 -190 0 -190 0 0 -190 0
-190 190 0 190 0 0 190 0 190 190 0 190 0 0 190 0 190 -190 0 -190 0 0 190 0
190 -190 0 -190 0 0 -190z"/>
<path d="M9120 3040 l0 -380 190 0 190 0 0 -190 0 -190 190 0 190 0 0 570 0
570 -380 0 -380 0 0 -380z"/>
<path d="M380 1710 l0 -1330 1330 0 1330 0 0 1330 0 1330 -1330 0 -1330 0 0
-1330z m2280 0 l0 -950 -950 0 -950 0 0 950 0 950 950 0 950 0 0 -950z"/>
<path d="M1140 1710 l0 -570 570 0 570 0 0 570 0 570 -570 0 -570 0 0 -570z"/>
<path d="M9500 1330 l0 -190 -190 0 -190 0 0 -380 0 -380 380 0 380 0 0 190 0
190 -190 0 -190 0 0 190 0 190 190 0 190 0 0 190 0 190 -190 0 -190 0 0 -190z"/>
</g>
</svg>
