<svg width="32" height="32" viewBox="0 0 32 32" fill="none" xmlns="http://www.w3.org/2000/svg">
<path d="M16 32C24.8366 32 32 24.8366 32 16C32 7.16344 24.8366 0 16 0C7.16344 0 0 7.16344 0 16C0 24.8366 7.16344 32 16 32Z" fill="url(#paint0_linear_293_96934)"/>
<path d="M18.3885 7.20637C18.9668 6.97668 19.5659 6.8032 20.1775 6.68837C22.2825 6.31737 23.2485 6.87039 23.3865 7.65639C23.4443 7.8949 23.4067 8.14654 23.2817 8.35777C23.1568 8.569 22.9543 8.72314 22.7175 8.78737C22.5609 8.80133 22.4049 8.7556 22.2806 8.65935C22.1564 8.56309 22.0731 8.42346 22.0475 8.26838C21.9475 7.67938 21.2105 7.46136 20.5375 7.57936C19.6242 7.78045 18.7473 8.12076 17.9375 8.58836C15.5485 11.6144 13.4374 20.3494 14.0304 23.6884C14.0994 24.0814 14.2705 24.2254 14.3305 24.5624C14.3613 24.7553 14.3159 24.9526 14.204 25.1127C14.092 25.2728 13.9222 25.3831 13.7305 25.4204C13.4215 25.4744 12.9665 25.3524 12.8475 24.6784C12.1055 20.4684 14.1765 13.5054 15.8695 9.64738C14.5153 10.4132 13.0505 10.9644 11.5274 11.2814C10.7694 11.4154 8.80644 11.4424 8.60844 10.3204C8.58696 10.141 8.63628 9.96032 8.74589 9.81672C8.8555 9.67313 9.01679 9.57794 9.19548 9.55137C9.30445 9.5344 9.41584 9.54192 9.52153 9.57341C9.62722 9.60489 9.72452 9.65955 9.80644 9.73338C10.012 9.92793 10.2599 10.0722 10.5305 10.155C10.8012 10.2377 11.0872 10.2567 11.3664 10.2104C13.2655 9.73171 15.0826 8.97236 16.7575 7.95738C17.1175 7.37338 17.4895 7.01837 17.7695 6.96837C17.8842 6.95484 18.0005 6.96944 18.1084 7.01091C18.2162 7.05237 18.3124 7.11946 18.3885 7.20637Z" fill="white"/>
<path fill-rule="evenodd" clip-rule="evenodd" d="M20.0907 6.19596C21.1871 6.00272 22.0535 6.03654 22.6907 6.26871C23.3434 6.50647 23.7663 6.96228 23.8761 7.55443C23.9592 7.91486 23.9006 8.29364 23.7121 8.61233C23.5208 8.93567 23.2109 9.17163 22.8483 9.26994L22.8058 9.28148L22.7619 9.28539C22.4797 9.31055 22.1984 9.22811 21.9744 9.05462C21.7505 8.88114 21.6003 8.62943 21.5542 8.34987L21.5545 8.35208C21.5417 8.27679 21.4912 8.19141 21.3202 8.12239C21.1444 8.05142 20.8935 8.02634 20.6339 8.07012C19.8061 8.25352 19.0101 8.55796 18.2715 8.97349C17.1666 10.4222 16.0869 13.2269 15.3505 16.1434C14.9789 17.615 14.7005 19.0923 14.5516 20.4024C14.4016 21.7217 14.3871 22.8372 14.5227 23.6009C14.5456 23.7313 14.5831 23.8185 14.6376 23.9364C14.6409 23.9434 14.6442 23.9507 14.6477 23.9581C14.7037 24.0787 14.7823 24.2477 14.8227 24.4747L14.8243 24.4835C14.8756 24.8045 14.8 25.1329 14.6137 25.3993C14.4274 25.6657 14.1449 25.8492 13.8258 25.9112L13.8165 25.913C13.5663 25.9567 13.2413 25.9328 12.9465 25.7424C12.6398 25.5443 12.4336 25.2103 12.3551 24.7653C11.9662 22.5587 12.3175 19.6852 12.9582 16.9181C13.4735 14.6931 14.1854 12.4973 14.8893 10.7062C13.8465 11.1796 12.7533 11.537 11.6293 11.7709L11.6219 11.7724L11.6145 11.7737C11.1897 11.8488 10.4467 11.8936 9.76399 11.763C9.12314 11.6404 8.27424 11.3037 8.11605 10.4072L8.11364 10.3936L8.11199 10.3798C8.07502 10.0712 8.15991 9.76035 8.34845 9.51334C8.5367 9.26673 8.81352 9.10313 9.12023 9.05707C9.30208 9.029 9.48791 9.04168 9.66427 9.09421C9.84127 9.14694 10.0041 9.23845 10.1412 9.36198L10.1502 9.37013C10.2997 9.51158 10.4798 9.61664 10.6767 9.67683C10.8674 9.73515 11.0687 9.7499 11.2657 9.72011C13.0709 9.26288 14.7999 8.54532 16.3981 7.59012C16.5735 7.31883 16.7582 7.08549 16.9451 6.90394C17.1442 6.71065 17.3954 6.52725 17.6816 6.47615L17.6962 6.47354L17.7109 6.47181C17.9062 6.44877 18.1043 6.47364 18.2878 6.54421C18.3541 6.5697 18.4178 6.60088 18.4782 6.63728C19.0008 6.44695 19.5383 6.29965 20.0852 6.19695L20.0907 6.19596ZM18.3885 7.20637C18.3124 7.11945 18.2162 7.05237 18.1084 7.01091C18.0005 6.96944 17.8842 6.95483 17.7695 6.96837C17.4895 7.01837 17.1175 7.37338 16.7575 7.95738C15.0826 8.97236 13.2655 9.73171 11.3664 10.2104C11.0872 10.2567 10.8012 10.2377 10.5305 10.155C10.2599 10.0722 10.012 9.92792 9.80644 9.73338C9.72453 9.65954 9.62722 9.60489 9.52153 9.57341C9.41584 9.54192 9.30445 9.5344 9.19548 9.55137C9.0168 9.57794 8.85551 9.67313 8.7459 9.81672C8.63629 9.96032 8.58696 10.141 8.60844 10.3204C8.80644 11.4424 10.7695 11.4154 11.5275 11.2814C12.7904 11.0185 14.0133 10.5946 15.1663 10.0208C15.4038 9.90268 15.6382 9.77816 15.8695 9.64738C15.7667 9.88169 15.6625 10.1275 15.5576 10.3834C13.9353 14.341 12.1505 20.724 12.8475 24.6784C12.9665 25.3524 13.4215 25.4744 13.7305 25.4204C13.9222 25.3831 14.092 25.2728 14.204 25.1127C14.3159 24.9526 14.3613 24.7553 14.3305 24.5624C14.3017 24.4007 14.2474 24.2834 14.191 24.1618C14.1299 24.0299 14.0663 23.8928 14.0304 23.6884C13.4374 20.3494 15.5485 11.6144 17.9375 8.58836C18.7473 8.12076 19.6242 7.78045 20.5375 7.57936M20.1775 6.68837C22.2825 6.31737 23.2485 6.87038 23.3865 7.65638C23.4443 7.8949 23.4067 8.14654 23.2817 8.35777C23.1568 8.569 22.7364 7.93614 22.4995 8.00037M18.3885 7.20637C18.9668 6.97667 19.5659 6.8032 20.1775 6.68837L18.3885 7.20637Z" fill="white"/>
<defs>
<linearGradient id="paint0_linear_293_96934" x1="16" y1="0" x2="16" y2="32" gradientUnits="userSpaceOnUse">
<stop stop-color="#FF0071"/>
<stop offset="1" stop-color="#B30058"/>
</linearGradient>
</defs>
</svg>
