<svg width="32" height="32" viewBox="0 0 32 32" fill="none" xmlns="http://www.w3.org/2000/svg">
<rect width="32" height="32" rx="16" fill="#F4F6F9"/>
<path d="M27.0346 11.2845L24.2034 14.1063C23.6409 20.6595 18.1096 25.7501 11.5002 25.7501C10.1409 25.7501 9.01587 25.5345 8.16275 25.1126C7.47837 24.7657 7.19712 24.4001 7.12212 24.2876C7.06007 24.1933 7.02009 24.0863 7.00515 23.9744C6.99021 23.8626 7.0007 23.7488 7.03584 23.6416C7.07099 23.5344 7.12988 23.4364 7.20812 23.3551C7.28636 23.2738 7.38195 23.2112 7.48775 23.172C7.5065 23.1626 9.719 22.3188 11.1534 20.697C10.2638 20.0636 9.48195 19.2912 8.83775 18.4095C7.55337 16.6657 6.194 13.6376 7.00962 9.11884C7.03526 8.9845 7.09671 8.85958 7.18747 8.75727C7.27822 8.65496 7.39493 8.57906 7.52525 8.53759C7.65599 8.49478 7.79598 8.48875 7.92991 8.52017C8.06385 8.55159 8.18656 8.61923 8.28462 8.71571C8.31275 8.75321 11.4346 11.8282 15.2502 12.822V12.2501C15.2539 11.6554 15.3747 11.0673 15.6057 10.5194C15.8366 9.97141 16.1733 9.4743 16.5964 9.05643C17.0195 8.63857 17.5207 8.30813 18.0715 8.08398C18.6223 7.85984 19.2119 7.74638 19.8065 7.75009C20.587 7.76122 21.3512 7.97432 22.0248 8.36863C22.6985 8.76294 23.2584 9.32502 23.6503 10.0001H26.5003C26.6483 9.99962 26.7932 10.043 26.9167 10.1247C27.0401 10.2065 27.1366 10.323 27.194 10.4595C27.248 10.598 27.2617 10.749 27.2335 10.895C27.2053 11.041 27.1364 11.176 27.0346 11.2845V11.2845Z" fill="#1A2C47"/>
</svg>
