<svg width="16" height="16" viewBox="0 0 16 16" fill="none" xmlns="http://www.w3.org/2000/svg">
<path d="M8 10C9.38071 10 10.5 8.88071 10.5 7.5C10.5 6.11929 9.38071 5 8 5C6.61929 5 5.5 6.11929 5.5 7.5C5.5 8.88071 6.61929 10 8 10Z" stroke="#61738E" stroke-miterlimit="10"/>
<path d="M3.98755 12.4629C4.36374 11.7219 4.93777 11.0996 5.64601 10.6648C6.35425 10.2301 7.16904 10 8.00005 10C8.83106 10 9.64585 10.2301 10.3541 10.6648C11.0623 11.0996 11.6364 11.7219 12.0125 12.4629" stroke="#61738E" stroke-linecap="round" stroke-linejoin="round"/>
<path d="M13.6563 6.00001C13.8855 6.64182 14.0018 7.31849 14 8.00001C14 9.1867 13.6481 10.3467 12.9888 11.3334C12.3295 12.3201 11.3925 13.0892 10.2961 13.5433C9.19975 13.9974 7.99335 14.1162 6.82946 13.8847C5.66558 13.6532 4.59648 13.0818 3.75736 12.2427C2.91825 11.4035 2.3468 10.3344 2.11529 9.17055C1.88378 8.00667 2.0026 6.80027 2.45673 5.70391C2.91085 4.60755 3.67989 3.67048 4.66658 3.01119C5.65328 2.35191 6.81331 2.00001 8 2.00001C8.3161 1.99939 8.63172 2.02447 8.94375 2.07501" stroke="#61738E" stroke-linecap="round" stroke-linejoin="round"/>
<path d="M15 1.5L12.6653 4L11.5 2.75" stroke="#61738E" stroke-linecap="round" stroke-linejoin="round"/>
</svg>
