<svg width="32" height="32" viewBox="0 0 32 32" fill="none" xmlns="http://www.w3.org/2000/svg">
<rect width="32" height="32" rx="16" fill="#F4F6F9"/>
<path d="M25.9656 10.5438C25.8795 10.1982 25.7108 9.87863 25.474 9.61248C25.2373 9.34634 24.9395 9.14157 24.6063 9.01572C21.4 7.77822 16.2812 7.7876 16 7.7876C15.7188 7.7876 10.6 7.77822 7.39375 9.01572C7.06051 9.14157 6.76275 9.34634 6.52599 9.61248C6.28923 9.87863 6.12054 10.1982 6.03438 10.5438C5.79063 11.472 5.5 13.1782 5.5 16.0001C5.5 18.822 5.79063 20.5282 6.03438 21.4563C6.12054 21.802 6.28923 22.1216 6.52599 22.3877C6.76275 22.6539 7.06051 22.8586 7.39375 22.9845C10.4688 24.1751 15.2875 24.2126 15.9344 24.2126H16.0656C16.7125 24.2126 21.5313 24.1751 24.6063 22.9845C24.9395 22.8586 25.2373 22.6539 25.474 22.3877C25.7108 22.1216 25.8795 21.802 25.9656 21.4563C26.2094 20.5282 26.5 18.822 26.5 16.0001C26.5 13.1782 26.2094 11.472 25.9656 10.5438ZM19.2062 16.3095L14.7062 19.3095C14.6466 19.3534 14.5741 19.3765 14.5 19.3751C14.4379 19.3728 14.3771 19.3568 14.3219 19.3282C14.262 19.2971 14.2118 19.2499 14.1771 19.192C14.1423 19.1341 14.1243 19.0676 14.125 19.0001V13.0001C14.1243 12.9326 14.1423 12.8661 14.1771 12.8082C14.2118 12.7503 14.262 12.7031 14.3219 12.672C14.3817 12.6401 14.449 12.625 14.5167 12.6283C14.5843 12.6316 14.6499 12.6532 14.7062 12.6907L19.2062 15.6907C19.2585 15.7237 19.3016 15.7693 19.3315 15.8234C19.3614 15.8775 19.377 15.9383 19.377 16.0001C19.377 16.0619 19.3614 16.1227 19.3315 16.1768C19.3016 16.2309 19.2585 16.2765 19.2062 16.3095Z" fill="#1A2C47"/>
</svg>
